<svg xmlns="http://www.w3.org/2000/svg" xmlns:xlink="http://www.w3.org/1999/xlink" viewBox="0 0 261.88 50.12"><defs><style>.cls-1{mask:url(#mask);filter:url(#luminosity-noclip-9);}.cls-10,.cls-12,.cls-14,.cls-16,.cls-2,.cls-4,.cls-6,.cls-8{mix-blend-mode:multiply;}.cls-2{fill:url(#Fade_to_White_73);}.cls-3{mask:url(#mask-2);filter:url(#luminosity-noclip-14);}.cls-4{fill:url(#Fade_to_White_73-2);}.cls-5,.cls-7{mask:url(#mask-3);}.cls-5{filter:url(#luminosity-noclip-15);}.cls-6{fill:url(#Fade_to_White_73-3);}.cls-7{filter:url(#luminosity-noclip-16);}.cls-8{fill:url(#Fade_to_White_73-4);}.cls-9{mask:url(#mask-5);filter:url(#luminosity-noclip-10);}.cls-10{fill:url(#Fade_to_White_73-5);}.cls-11,.cls-13{mask:url(#mask-6);}.cls-11{filter:url(#luminosity-noclip-11);}.cls-12{fill:url(#Fade_to_White_73-6);}.cls-13{filter:url(#luminosity-noclip-12);}.cls-14{fill:url(#Fade_to_White_73-7);}.cls-15{mask:url(#mask-8);filter:url(#luminosity-noclip-13);}.cls-16{fill:url(#Fade_to_White_73-8);}.cls-17{isolation:isolate;}.cls-18,.cls-21,.cls-23,.cls-24,.cls-40{fill:#15ed02;}.cls-18{opacity:0.75;}.cls-19{mask:url(#mask-9);}.cls-20{fill:#432918;}.cls-20,.cls-23,.cls-27,.cls-32,.cls-35,.cls-37{mix-blend-mode:overlay;}.cls-22{mask:url(#mask-10);}.cls-24{opacity:0.77;}.cls-25{mask:url(#mask-11);}.cls-26{mask:url(#mask-12);}.cls-27{fill:#dadada;}.cls-28{fill:#ededed;}.cls-29{mask:url(#mask-13);}.cls-30{fill:#066493;}.cls-31{mask:url(#mask-14);}.cls-32{fill:url(#Fade_to_White_5);}.cls-33,.cls-38{fill:#fff;}.cls-34{mask:url(#mask-15);}.cls-35{fill:url(#Fade_to_Black);}.cls-36{mask:url(#mask-16);}.cls-37{fill:url(#Fade_to_Black-2);}.cls-38{font-size:40.69px;font-family:Komet-Heavy, Komet;letter-spacing:0.15em;}.cls-39{letter-spacing:0.15em;}.cls-40{font-size:44.39px;font-family:Komet-HeavySC, Komet;letter-spacing:0.15em;}.cls-41{filter:url(#luminosity-noclip-8);}.cls-42{filter:url(#luminosity-noclip-6);}.cls-43{filter:url(#luminosity-noclip-5);}.cls-44{filter:url(#luminosity-noclip-3);}.cls-45{filter:url(#luminosity-noclip-2);}.cls-46{filter:url(#luminosity-noclip);}</style><filter id="luminosity-noclip" x="0.66" y="-8129.05" width="11.49" height="32766" filterUnits="userSpaceOnUse" color-interpolation-filters="sRGB"><feFlood flood-color="#fff" result="bg"/><feBlend in="SourceGraphic" in2="bg"/></filter><mask id="mask" x="0.66" y="-8129.05" width="11.49" height="32766" maskUnits="userSpaceOnUse"><g class="cls-46"/></mask><linearGradient id="Fade_to_White_73" x1="-367.79" y1="788.37" x2="-374.49" y2="777.44" gradientTransform="matrix(0.55, 0.84, 0.84, -0.55, -447.82, 762.33)" gradientUnits="userSpaceOnUse"><stop offset="0"/><stop offset="0.16" stop-color="#030303"/><stop offset="0.29" stop-color="#0d0d0d"/><stop offset="0.41" stop-color="#1e1e1e"/><stop offset="0.52" stop-color="#363636"/><stop offset="0.63" stop-color="#555"/><stop offset="0.74" stop-color="#7b7b7b"/><stop offset="0.84" stop-color="#a7a7a7"/><stop offset="0.94" stop-color="#dadada"/><stop offset="1" stop-color="#fff"/></linearGradient><filter id="luminosity-noclip-2" x="36.36" y="-8129.05" width="0.58" height="32766" filterUnits="userSpaceOnUse" color-interpolation-filters="sRGB"><feFlood flood-color="#fff" result="bg"/><feBlend in="SourceGraphic" in2="bg"/></filter><mask id="mask-2" x="36.36" y="-8129.05" width="0.58" height="32766" maskUnits="userSpaceOnUse"><g class="cls-45"/></mask><linearGradient id="Fade_to_White_73-2" x1="-33.28" y1="-707.48" x2="0.52" y2="-693.57" gradientTransform="translate(21.48 -694.13) rotate(180)" xlink:href="#Fade_to_White_73"/><filter id="luminosity-noclip-3" x="15.32" y="-8129.05" width="17.14" height="32766" filterUnits="userSpaceOnUse" color-interpolation-filters="sRGB"><feFlood flood-color="#fff" result="bg"/><feBlend in="SourceGraphic" in2="bg"/></filter><mask id="mask-3" x="15.32" y="-8129.05" width="17.14" height="32766" maskUnits="userSpaceOnUse"><g class="cls-44"/></mask><linearGradient id="Fade_to_White_73-3" x1="-24.65" y1="-727.3" x2="8.74" y2="-713.56" gradientTransform="translate(21.48 -694.13) rotate(180)" xlink:href="#Fade_to_White_73"/><linearGradient id="Fade_to_White_73-4" x1="-22.32" y1="-726.34" x2="4.79" y2="-715.19" gradientTransform="translate(21.48 -694.13) rotate(180)" xlink:href="#Fade_to_White_73"/><filter id="luminosity-noclip-5" x="8.4" y="-8129.05" width="0.58" height="32766" filterUnits="userSpaceOnUse" color-interpolation-filters="sRGB"><feFlood flood-color="#fff" result="bg"/><feBlend in="SourceGraphic" in2="bg"/></filter><mask id="mask-5" x="8.4" y="-8129.05" width="0.58" height="32766" maskUnits="userSpaceOnUse"><g class="cls-43"/></mask><linearGradient id="Fade_to_White_73-5" x1="-9.43" y1="31.64" x2="24.4" y2="45.56" gradientTransform="matrix(1, 0, 0, 1, 0, 0)" xlink:href="#Fade_to_White_73"/><filter id="luminosity-noclip-6" x="12.88" y="-8129.05" width="17.14" height="32766" filterUnits="userSpaceOnUse" color-interpolation-filters="sRGB"><feFlood flood-color="#fff" result="bg"/><feBlend in="SourceGraphic" in2="bg"/></filter><mask id="mask-6" x="12.88" y="-8129.05" width="17.14" height="32766" maskUnits="userSpaceOnUse"><g class="cls-42"/></mask><linearGradient id="Fade_to_White_73-6" x1="-0.78" y1="11.83" x2="32.61" y2="25.56" gradientTransform="matrix(1, 0, 0, 1, 0, 0)" xlink:href="#Fade_to_White_73"/><linearGradient id="Fade_to_White_73-7" x1="1.55" y1="12.79" x2="28.65" y2="23.94" gradientTransform="matrix(1, 0, 0, 1, 0, 0)" xlink:href="#Fade_to_White_73"/><filter id="luminosity-noclip-8" x="33.22" y="-8129.05" width="11.49" height="32766" filterUnits="userSpaceOnUse" color-interpolation-filters="sRGB"><feFlood flood-color="#fff" result="bg"/><feBlend in="SourceGraphic" in2="bg"/></filter><mask id="mask-8" x="33.22" y="-8129.05" width="11.49" height="32766" maskUnits="userSpaceOnUse"><g class="cls-41"/></mask><linearGradient id="Fade_to_White_73-8" x1="36.53" y1="22.59" x2="44.95" y2="22.74" gradientTransform="matrix(1, 0, 0, 1, 0, 0)" xlink:href="#Fade_to_White_73"/><filter id="luminosity-noclip-9" x="0.66" y="6.16" width="11.49" height="33.42" filterUnits="userSpaceOnUse" color-interpolation-filters="sRGB"><feFlood flood-color="#fff" result="bg"/><feBlend in="SourceGraphic" in2="bg"/></filter><mask id="mask-9" x="0.66" y="6.16" width="11.49" height="33.42" maskUnits="userSpaceOnUse"><g class="cls-1"><path class="cls-2" d="M10.14,39.45c-.44-.25-.9-.55-1.35-.87l-.33-.29,0,0a19.09,19.09,0,0,1-4.59-4.77A18.74,18.74,0,0,1,9.49,7.22a12.19,12.19,0,0,1,2.23-1.06,15.69,15.69,0,0,0-1.07,2.78A16.65,16.65,0,0,0,6.49,31.86a17.4,17.4,0,0,0,5.65,5.28c-.34,1.76-.86,2.23-1.09,2.36S10.72,39.67,10.14,39.45Z"/></g></mask><filter id="luminosity-noclip-10" x="8.4" y="38.86" width="0.58" height="0.48" filterUnits="userSpaceOnUse" color-interpolation-filters="sRGB"><feFlood flood-color="#fff" result="bg"/><feBlend in="SourceGraphic" in2="bg"/></filter><mask id="mask-10" x="8.4" y="38.86" width="0.58" height="0.48" maskUnits="userSpaceOnUse"><g class="cls-9"><path class="cls-10" d="M9,39.3l-.49-.38-.09-.06.58.48Z"/></g></mask><filter id="luminosity-noclip-11" x="12.88" y="0.88" width="17.14" height="39.68" filterUnits="userSpaceOnUse" color-interpolation-filters="sRGB"><feFlood flood-color="#fff" result="bg"/><feBlend in="SourceGraphic" in2="bg"/></filter><mask id="mask-11" x="12.88" y="0.88" width="17.14" height="39.68" maskUnits="userSpaceOnUse"><g class="cls-11"><path class="cls-12" d="M15.45,40.57a8.51,8.51,0,0,1-2.57-.45,6.88,6.88,0,0,0,1.38-3.65,46.83,46.83,0,0,0,0-9.12c-.44-6-.81-12.88.33-17.55l.06-.2a13.06,13.06,0,0,1,8.49-8.37A9.64,9.64,0,0,1,25.71.88a10.77,10.77,0,0,1,4.31,1c-.23,0-.47,0-.7,0a8.48,8.48,0,0,0-3.5.73l-.12.05a8.58,8.58,0,0,0-3.27,2.58l0,0,0,0a7.22,7.22,0,0,0-.44.88c-1.56,3.67-1.65,10-1.31,18.4a83.48,83.48,0,0,1-.07,10.65c-.71,3.6-2.38,5.4-5.11,5.4Z"/></g></mask><filter id="luminosity-noclip-12" x="12.88" y="0.89" width="17.14" height="39.68" filterUnits="userSpaceOnUse" color-interpolation-filters="sRGB"><feFlood flood-color="#fff" result="bg"/><feBlend in="SourceGraphic" in2="bg"/></filter><mask id="mask-12" x="12.88" y="0.89" width="17.14" height="39.68" maskUnits="userSpaceOnUse"><g class="cls-13"><path class="cls-14" d="M12.88,40.12a9.05,9.05,0,0,0,2.5.45,8.15,8.15,0,0,0,1-3.09,46.73,46.73,0,0,0,0-9.11c-.44-6.05-.8-12.89.34-17.55l.05-.21a13.09,13.09,0,0,1,8.49-8.37A10.05,10.05,0,0,1,27.8,1.9H28a9.67,9.67,0,0,1,1.33-.11c.23,0,.47,0,.7,0A10.75,10.75,0,0,0,25.71.89a10.05,10.05,0,0,0-2.56.34A13.09,13.09,0,0,0,14.66,9.6l-.06.21c-1.14,4.66-.77,11.5-.33,17.54a46.83,46.83,0,0,1,0,9.12A6.88,6.88,0,0,1,12.88,40.12Z"/></g></mask><filter id="luminosity-noclip-13" x="33.22" y="5.84" width="11.49" height="33.42" filterUnits="userSpaceOnUse" color-interpolation-filters="sRGB"><feFlood flood-color="#fff" result="bg"/><feBlend in="SourceGraphic" in2="bg"/></filter><mask id="mask-13" x="33.22" y="5.84" width="11.49" height="33.42" maskUnits="userSpaceOnUse"><g class="cls-15"><path class="cls-16" d="M35.22,6a14.47,14.47,0,0,1,1.35.86l.33.29,0,0a18.77,18.77,0,0,1-1,31.1,11.67,11.67,0,0,1-2.24,1.07,15.23,15.23,0,0,0,1.07-2.78,16.67,16.67,0,0,0,4.16-22.93,17.51,17.51,0,0,0-5.65-5.28c.34-1.76.87-2.23,1.09-2.36A1,1,0,0,1,35.22,6Z"/></g></mask><filter id="luminosity-noclip-14" x="36.36" y="5.66" width="0.58" height="0.48" filterUnits="userSpaceOnUse" color-interpolation-filters="sRGB"><feFlood flood-color="#fff" result="bg"/><feBlend in="SourceGraphic" in2="bg"/></filter><mask id="mask-14" x="36.36" y="5.66" width="0.58" height="0.48" maskUnits="userSpaceOnUse"><g class="cls-3"><path class="cls-4" d="M36.36,5.7c.17.12.33.24.5.38l.09.06-.59-.48Z"/></g></mask><linearGradient id="Fade_to_White_5" x1="-33.28" y1="-707.48" x2="0.52" y2="-693.57" gradientTransform="translate(21.48 -694.13) rotate(180)" gradientUnits="userSpaceOnUse"><stop offset="0" stop-color="#fdffff"/><stop offset="0.91" stop-color="#fdffff"/><stop offset="1" stop-color="#fdffff"/></linearGradient><filter id="luminosity-noclip-15" x="15.32" y="4.43" width="17.14" height="39.68" filterUnits="userSpaceOnUse" color-interpolation-filters="sRGB"><feFlood flood-color="#fff" result="bg"/><feBlend in="SourceGraphic" in2="bg"/></filter><mask id="mask-15" x="15.32" y="4.43" width="17.14" height="39.68" maskUnits="userSpaceOnUse"><g class="cls-5"><path class="cls-6" d="M29.89,4.43a8.58,8.58,0,0,1,2.58.45,6.88,6.88,0,0,0-1.38,3.65,46.83,46.83,0,0,0,0,9.12c.44,6,.8,12.89-.33,17.55l-.06.2a13.06,13.06,0,0,1-8.49,8.37,9.63,9.63,0,0,1-2.56.34,10.84,10.84,0,0,1-4.32-.94l.71,0a8.51,8.51,0,0,0,3.5-.73l.12,0a8.67,8.67,0,0,0,3.27-2.58l0,0,0,0a9,9,0,0,0,.44-.88c1.56-3.67,1.65-10,1.31-18.4a81.65,81.65,0,0,1,.07-10.65c.71-3.6,2.38-5.4,5.1-5.4Z"/></g></mask><linearGradient id="Fade_to_Black" x1="15.32" y1="24.27" x2="32.47" y2="24.27" gradientUnits="userSpaceOnUse"><stop offset="0" stop-color="#231f20"/><stop offset="0.09" stop-color="#231f20"/><stop offset="1" stop-color="#231f20"/></linearGradient><filter id="luminosity-noclip-16" x="15.32" y="4.43" width="17.14" height="39.68" filterUnits="userSpaceOnUse" color-interpolation-filters="sRGB"><feFlood flood-color="#fff" result="bg"/><feBlend in="SourceGraphic" in2="bg"/></filter><mask id="mask-16" x="15.32" y="4.43" width="17.14" height="39.68" maskUnits="userSpaceOnUse"><g class="cls-7"><path class="cls-8" d="M32.47,4.88A9.06,9.06,0,0,0,30,4.43a8.34,8.34,0,0,0-1,3.08,46,46,0,0,0,0,9.12c.43,6.05.8,12.89-.34,17.55l-.06.21a13.07,13.07,0,0,1-8.49,8.37,10.05,10.05,0,0,1-2.56.34h-.18A9.8,9.8,0,0,1,16,43.2l-.71,0a10.84,10.84,0,0,0,4.32.94,9.63,9.63,0,0,0,2.56-.34,13.06,13.06,0,0,0,8.49-8.37l.06-.21c1.13-4.66.77-11.5.33-17.54a46.83,46.83,0,0,1,0-9.12A6.88,6.88,0,0,1,32.47,4.88Z"/></g></mask><linearGradient id="Fade_to_Black-2" x1="-22.32" y1="-726.34" x2="4.79" y2="-715.19" gradientTransform="translate(21.48 -694.13) rotate(180)" xlink:href="#Fade_to_Black"/></defs><title>Logo_Muse_45h</title><g class="cls-17"><g id="Layer_2" data-name="Layer 2"><g id="Layer_1-2" data-name="Layer 1"><path class="cls-18" d="M10,39.88c-.51-.3-1-.62-1.49-1l-.39-.33.21.2.09.07a20.12,20.12,0,0,1-5.06-5.18A19.55,19.55,0,0,1,9.25,6.16a15,15,0,0,1,4.57-1.8,15.48,15.48,0,0,0-2.15,4.75A15.85,15.85,0,0,0,7.48,31a16.38,16.38,0,0,0,5.88,5.31C13,38.93,12,40.75,10,39.88Z"/><g class="cls-19"><path class="cls-20" d="M10.14,39.45c-.44-.25-.9-.55-1.35-.87l-.33-.29,0,0a19.09,19.09,0,0,1-4.59-4.77A18.74,18.74,0,0,1,9.49,7.22a12.19,12.19,0,0,1,2.23-1.06,15.69,15.69,0,0,0-1.07,2.78A16.65,16.65,0,0,0,6.49,31.86a17.4,17.4,0,0,0,5.65,5.28c-.34,1.76-.86,2.23-1.09,2.36S10.72,39.67,10.14,39.45Z"/></g><path class="cls-21" d="M9,39.3l-.49-.38-.09-.06.58.48Z"/><g class="cls-22"><path class="cls-23" d="M9,39.3l-.49-.38-.09-.06.58.48Z"/></g><path class="cls-24" d="M36.93,5.69a18.36,18.36,0,0,0-3-2.57h0C29.66-.11,25.9-.44,22.89.38A13.84,13.84,0,0,0,13.8,9.32l0,.07c0,.07,0,.14,0,.21-1.13,4.6-.85,11-.36,17.81a45.81,45.81,0,0,1,0,8.94c-.37,2.5-1.26,4.28-3.2,3.59,2.78,1.45,9.6,4,11.3-4.68a83.28,83.28,0,0,0,.08-10.77c-.35-8.57-.2-14.64,1.24-18a7.26,7.26,0,0,1,.39-.79,7.93,7.93,0,0,1,2.91-2.29h0C28.38,2.33,32,2,36.93,5.69Z"/><g class="cls-25"><path class="cls-20" d="M15.45,40.57a8.51,8.51,0,0,1-2.57-.45,6.88,6.88,0,0,0,1.38-3.65,46.83,46.83,0,0,0,0-9.12c-.44-6-.81-12.88.33-17.55l.06-.2a13.06,13.06,0,0,1,8.49-8.37A9.64,9.64,0,0,1,25.71.88a10.77,10.77,0,0,1,4.31,1c-.23,0-.47,0-.7,0a8.48,8.48,0,0,0-3.5.73l-.12.05a8.58,8.58,0,0,0-3.27,2.58l0,0,0,0a7.22,7.22,0,0,0-.44.88c-1.56,3.67-1.65,10-1.31,18.4a83.48,83.48,0,0,1-.07,10.65c-.71,3.6-2.38,5.4-5.11,5.4Z"/></g><g class="cls-26"><path class="cls-27" d="M12.88,40.12a9.05,9.05,0,0,0,2.5.45,8.15,8.15,0,0,0,1-3.09,46.73,46.73,0,0,0,0-9.11c-.44-6.05-.8-12.89.34-17.55l.05-.21a13.09,13.09,0,0,1,8.49-8.37A10.05,10.05,0,0,1,27.8,1.9H28a9.67,9.67,0,0,1,1.33-.11c.23,0,.47,0,.7,0A10.75,10.75,0,0,0,25.71.89a10.05,10.05,0,0,0-2.56.34A13.09,13.09,0,0,0,14.66,9.6l-.06.21c-1.14,4.66-.77,11.5-.33,17.54a46.83,46.83,0,0,1,0,9.12A6.88,6.88,0,0,1,12.88,40.12Z"/></g><path class="cls-28" d="M35.37,5.12c.51.3,1,.62,1.49,1l.39.33L37,6.21,37,6.14a19.93,19.93,0,0,1,5,5.18,19.55,19.55,0,0,1-5.9,27.52,15,15,0,0,1-4.57,1.8,15.73,15.73,0,0,0,2.15-4.75A15.86,15.86,0,0,0,37.87,14,16.26,16.26,0,0,0,32,8.66C32.36,6.07,33.3,4.25,35.37,5.12Z"/><g class="cls-29"><path class="cls-20" d="M35.22,6a14.47,14.47,0,0,1,1.35.86l.33.29,0,0a18.77,18.77,0,0,1-1,31.1,11.67,11.67,0,0,1-2.24,1.07,15.23,15.23,0,0,0,1.07-2.78,16.67,16.67,0,0,0,4.16-22.93,17.51,17.51,0,0,0-5.65-5.28c.34-1.76.87-2.23,1.09-2.36A1,1,0,0,1,35.22,6Z"/></g><path class="cls-30" d="M36.36,5.7c.17.12.33.24.5.38l.09.06-.59-.48Z"/><g class="cls-31"><path class="cls-32" d="M36.36,5.7c.17.12.33.24.5.38l.09.06-.59-.48Z"/></g><path class="cls-33" d="M8.41,39.31a18.75,18.75,0,0,0,3,2.57h0c4.28,3.23,8,3.56,11.06,2.74a13.84,13.84,0,0,0,9.09-8.93s0,0,0-.08l.06-.21c1.12-4.6.85-11,.36-17.81a45.71,45.71,0,0,1,0-8.93c.36-2.51,1.26-4.29,3.19-3.6-2.77-1.45-9.59-4-11.3,4.68a83.51,83.51,0,0,0-.07,10.77c.35,8.57.2,14.64-1.25,18a8.1,8.1,0,0,1-.39.78,7.72,7.72,0,0,1-2.91,2.29h0C17,42.67,13.34,43,8.41,39.31Z"/><g class="cls-34"><path class="cls-35" d="M29.89,4.43a8.58,8.58,0,0,1,2.58.45,6.88,6.88,0,0,0-1.38,3.65,46.83,46.83,0,0,0,0,9.12c.44,6,.8,12.89-.33,17.55l-.06.2a13.06,13.06,0,0,1-8.49,8.37,9.63,9.63,0,0,1-2.56.34,10.84,10.84,0,0,1-4.32-.94l.71,0a8.51,8.51,0,0,0,3.5-.73l.12,0a8.67,8.67,0,0,0,3.27-2.58l0,0,0,0a9,9,0,0,0,.44-.88c1.56-3.67,1.65-10,1.31-18.4a81.65,81.65,0,0,1,.07-10.65c.71-3.6,2.38-5.4,5.1-5.4Z"/></g><g class="cls-36"><path class="cls-37" d="M32.47,4.88A9.06,9.06,0,0,0,30,4.43a8.34,8.34,0,0,0-1,3.08,46,46,0,0,0,0,9.12c.43,6.05.8,12.89-.34,17.55l-.06.21a13.07,13.07,0,0,1-8.49,8.37,10.05,10.05,0,0,1-2.56.34h-.18A9.8,9.8,0,0,1,16,43.2l-.71,0a10.84,10.84,0,0,0,4.32.94,9.63,9.63,0,0,0,2.56-.34,13.06,13.06,0,0,0,8.49-8.37l.06-.21c1.13-4.66.77-11.5.33-17.54a46.83,46.83,0,0,1,0-9.12A6.88,6.88,0,0,1,32.47,4.88Z"/></g><text class="cls-38" transform="translate(51.95 38.73)">F<tspan class="cls-39" x="26.91" y="0">uel</tspan></text><text class="cls-40" transform="translate(154.76 39.03)">CNC</text></g></g></g></svg>